<svg xmlns="http://www.w3.org/2000/svg" viewBox="0 0 45.08 115.07"><defs><style>.cls-1{fill:white;}</style></defs><g id="Layer_2" data-name="Layer 2"><g id="Layer_1-2" data-name="Layer 1"><path class="cls-1" d="M22.54,0A9.43,9.43,0,1,0,32,9.43,9.42,9.42,0,0,0,22.54,0ZM12.13,21.27A12.12,12.12,0,0,0,0,33.34V62.57a4.08,4.08,0,0,0,4.07,4.12A4.13,4.13,0,0,0,8.2,62.57V36.21h2.1s0,68.81,0,73.33a5.53,5.53,0,1,0,11,0V67h2.27v42.58a5.54,5.54,0,0,0,11.08,0V36.21h2.13V62.57A4.13,4.13,0,0,0,41,66.69a4.08,4.08,0,0,0,4.07-4.12V33.34A12.12,12.12,0,0,0,33,21.27Z"/></g></g></svg>