<svg xmlns="http://www.w3.org/2000/svg" viewBox="0 0 29.24 28.14"><defs><style>.cls-1{fill:white;}</style></defs><g id="Layer_2" data-name="Layer 2"><g id="Capa_1" data-name="Capa 1"><path class="cls-1" d="M7.68,24.27h.6V22.14H12v2.13h.59V22.14h3.87v2.13H17V22.14h4.11v2.13h.6V22.14h3.41v-.6H21.73V17.68h3.41v-.59H21.73V13.57h3.41V13H21.73V10.6h-.6V13H17V10.6h-.59V13H12.56V10.6H12V13H8.28V10.6h-.6V13H3.75v.6H7.68v3.52H3.75v.59H7.68v3.86H3.75v.6H7.68Zm4.88-2.73V17.68h3.86v3.86Zm8.57,0H17V17.68h4.11Zm0-8v3.52H17V13.57Zm-4.7,0v3.52H12.56V13.57Zm-8.15,0H12v3.52H8.28Zm0,4.11H12v3.86H8.28Z"/><path class="cls-1" d="M29.21,2H24.48V4.41A1.2,1.2,0,0,1,23.29,5.6H21.9a1.19,1.19,0,0,1-1.19-1.19V2H19.13V4.41A1.2,1.2,0,0,1,17.94,5.6H16.55a1.19,1.19,0,0,1-1.19-1.19V2H13.68V4.41A1.2,1.2,0,0,1,12.49,5.6H11.1A1.2,1.2,0,0,1,9.91,4.41V2H8.18V4.41A1.19,1.19,0,0,1,7,5.6H5.61A1.19,1.19,0,0,1,4.42,4.41V2H0V28.14H29.24ZM27.15,26.06H2.09V9.35H27.15Z"/><path class="cls-1" d="M5.61,4.75H7a.29.29,0,0,0,.3-.29V.3A.29.29,0,0,0,7,0H5.61a.29.29,0,0,0-.3.3V4.46A.29.29,0,0,0,5.61,4.75Z"/><path class="cls-1" d="M11.1,4.75h1.39a.3.3,0,0,0,.3-.29V.3a.3.3,0,0,0-.3-.3H11.1a.3.3,0,0,0-.3.3V4.46A.31.31,0,0,0,11.1,4.75Z"/><path class="cls-1" d="M16.55,4.75h1.39a.3.3,0,0,0,.3-.29V.3a.3.3,0,0,0-.3-.3H16.55a.3.3,0,0,0-.3.3V4.46A.3.3,0,0,0,16.55,4.75Z"/><path class="cls-1" d="M21.9,4.75h1.39a.29.29,0,0,0,.29-.29V.3a.29.29,0,0,0-.29-.3H21.9a.3.3,0,0,0-.3.3V4.46A.3.3,0,0,0,21.9,4.75Z"/></g></g></svg>