<svg xmlns="http://www.w3.org/2000/svg" viewBox="0 0 243.41 482.08"><defs><style>.cls-1{fill:white;}</style></defs><g id="Layer_2" data-name="Layer 2"><g id="Layer_1-2" data-name="Layer 1"><path class="cls-1" d="M242.27,261.45c-8-21.95-30.14-85.36-45.47-129.37a49.07,49.07,0,0,0-46.3-32.93H93.77a49,49,0,0,0-46.22,32.65c-19,53.57-39.73,111.4-46.4,129.66a18.8,18.8,0,1,0,35.31,12.91c8.95-24.46,28.88-80,37.36-103.65-6,33.33-19.28,101.7-26.7,140a10.46,10.46,0,0,0,10.25,12.44H71.72V459.52a22.56,22.56,0,0,0,45.12,0V323.15h9.74V459.52a22.56,22.56,0,0,0,45.12,0V323.15H186a10.44,10.44,0,0,0,10.25-12.44c-22.15-114.31-25.71-131.92-26.7-140,15.06,42.63,37.1,102.93,37.36,103.65a18.8,18.8,0,0,0,35.32-12.91Z"/><path class="cls-1" d="M227.19,94.77c-10.68-22-23.2-29.88-30.8-33.67-5.76-2.88-11.9-3.3-17.35.29l.76-1.79a5.75,5.75,0,0,0-9.92-5.66,48.48,48.48,0,1,0-96.35,0,5.75,5.75,0,0,0-9.92,5.66l.77,1.79C58.93,57.8,52.78,58.22,47,61.1c-7.6,3.79-20.12,11.71-30.8,33.67A3,3,0,0,0,19.9,99c18.89-6.19,38-.7,45.47-4.43a16.78,16.78,0,0,0,8.68-10.46c.71,1.68,1.81,5.47,6.13,5.47a5.77,5.77,0,0,0,5.3-8l-.72-1.68a48.45,48.45,0,0,0,73.9,0l-.72,1.68a5.76,5.76,0,0,0,5.29,8c4.31,0,5.43-3.8,6.14-5.47a16.74,16.74,0,0,0,8.68,10.46c7.45,3.73,26.58-1.77,45.47,4.43A3,3,0,0,0,227.19,94.77Z"/></g></g></svg>