<svg xmlns="http://www.w3.org/2000/svg" viewBox="0 0 335.37 532.08"><defs><style>.cls-1{fill:white;}</style></defs><g id="Layer_2" data-name="Layer 2"><g id="svg3025"><g id="g3027"><path id="path3029" class="cls-1" d="M335.37,266q0,17.76-12.64,31.08L100.06,519.45a41.82,41.82,0,0,1-30.73,12.63,41.86,41.86,0,0,1-30.74-12.63L12.64,493.83Q0,480.53,0,462.76A41.81,41.81,0,0,1,12.64,432l166-166-166-165.63Q0,87.09,0,69.33A41.83,41.83,0,0,1,12.64,38.59L38.59,13Q50.89,0,69.33,0t30.73,13L322.73,235.31A41.81,41.81,0,0,1,335.37,266Z"/></g></g></g></svg>