<?xml version="1.0" standalone="no"?>
<!DOCTYPE svg PUBLIC "-//W3C//DTD SVG 20010904//EN"
 "http://www.w3.org/TR/2001/REC-SVG-20010904/DTD/svg10.dtd">
<svg version="1.0" xmlns="http://www.w3.org/2000/svg"
 width="512.000000pt" height="512.000000pt" viewBox="0 0 512.000000 512.000000"
 preserveAspectRatio="xMidYMid meet">

<g transform="translate(0.000000,512.000000) scale(0.100000,-0.100000)"
fill="#000000" stroke="none">
<path d="M2084 3651 c-70 -42 -102 -117 -114 -262 -5 -62 -16 -121 -25 -138
l-16 -31 59 0 c69 0 138 19 180 49 17 11 32 21 34 21 1 0 3 -33 4 -73 1 -128
67 -233 186 -298 60 -32 68 -34 163 -34 89 0 106 3 156 28 69 34 132 100 167
175 20 45 26 73 26 133 l1 76 35 -23 c54 -36 117 -54 185 -54 l62 0 -18 38
c-11 23 -22 77 -28 148 -9 117 -26 164 -75 217 -45 49 -126 62 -191 31 -40
-19 -61 -48 -77 -107 l-12 -45 -37 25 c-109 72 -280 71 -389 -3 l-35 -24 -5
39 c-12 80 -71 131 -155 131 -31 0 -62 -7 -81 -19z"/>
<path d="M2304 2790 c-100 -20 -209 -100 -258 -190 -22 -41 -159 -466 -207
-643 -28 -106 75 -191 171 -142 16 8 35 25 41 37 7 13 52 148 100 302 93 295
110 329 139 277 8 -15 -15 -122 -103 -474 -78 -310 -111 -460 -105 -471 7 -12
25 -16 78 -16 l70 0 0 -380 c0 -419 1 -428 60 -470 65 -47 157 -32 204 33 20
27 21 44 26 420 l5 392 35 0 35 0 5 -392 c5 -376 6 -393 26 -420 62 -84 171
-79 238 11 20 26 21 42 24 416 l3 389 77 3 c74 3 77 4 80 29 2 14 -47 224
-108 468 -86 346 -108 446 -100 461 28 53 44 20 142 -294 94 -303 102 -318
172 -331 66 -13 131 45 130 114 0 35 -183 631 -209 681 -44 86 -157 167 -263
189 -61 13 -445 13 -508 1z"/>
</g>
</svg>
